<svg width="500" height="487" viewBox="0 0 500 487" fill="none" xmlns="http://www.w3.org/2000/svg">
<g clip-path="url(#clip0_1_2)">
<rect width="500" height="487" fill="none"/>
<rect x="176.214" y="36.4492" width="184.201" height="91.2908" fill="black"/>
<rect x="176.214" y="219.031" width="184.201" height="86.9436" fill="black"/>
<rect x="176.214" y="394.367" width="184.201" height="91.2908" fill="black"/>
<ellipse cx="360.414" cy="171.212" rx="139.274" ry="134.763" fill="black"/>
<ellipse cx="360.726" cy="350.694" rx="139.274" ry="134.763" fill="black"/>
<ellipse cx="357.419" cy="173.385" rx="49.4197" ry="45.6454" fill="white"/>
<ellipse cx="357.419" cy="351.62" rx="49.4197" ry="45.6454" fill="white"/>
<rect x="90.8524" y="127.74" width="269.562" height="91.2908" fill="none"/>
<rect x="90.8524" y="305.974" width="269.562" height="91.2908" fill="none"/>
<rect x="125.109" y="18.1347" width="184.201" height="91.2908" fill="transparent"/>
<rect x="125.109" y="200.716" width="184.201" height="86.9436" fill="white"/>
<rect x="125.109" y="376.052" width="184.201" height="91.2908" fill="white"/>
<ellipse cx="309.31" cy="152.897" rx="139.274" ry="134.763" fill="white"/>
<ellipse cx="309.622" cy="332.379" rx="139.274" ry="134.763" fill="white"/>
<ellipse cx="306.315" cy="155.071" rx="49.4197" ry="45.6454" fill="white"/>
<ellipse cx="306.315" cy="333.305" rx="49.4197" ry="45.6454" fill="white"/>
<rect x="39.7479" y="109.425" width="269.562" height="91.2908" fill="white"/>
<rect x="39.7479" y="287.66" width="269.562" height="91.2908" fill="white"/>
<rect x="119.244" y="5.31449" width="155.206" height="91.5725" fill="black"/>
<rect x="119.244" y="188.46" width="155.206" height="86.0782" fill="black"/>
<rect x="119.244" y="362.447" width="155.206" height="91.5725" fill="black"/>
<ellipse cx="275.24" cy="140.077" rx="139.274" ry="134.763" fill="black"/>
<ellipse cx="275.552" cy="319.559" rx="139.274" ry="134.763" fill="black"/>
<ellipse cx="272.245" cy="142.251" rx="49.4197" ry="45.6454" fill="white"/>
<ellipse cx="272.245" cy="320.485" rx="49.4197" ry="45.6454" fill="white"/>
<rect x="5.67825" y="96.6052" width="269.562" height="91.2908" fill="white"/>
<rect x="5.67825" y="274.84" width="269.562" height="91.2908" fill="white"/>
<rect width="483.448" height="63.8193" transform="matrix(-0.0831423 0.996538 -0.996963 -0.0778768 103.821 4.79018)" fill="black"/>
<rect width="486.191" height="32.4431" transform="matrix(-0.0831423 0.996538 -0.996963 -0.0778768 88.571 2.49217)" fill="white"/>
</g>
<defs>
<clipPath id="clip0_1_2">
<rect width="500" height="487" fill="white"/>
</clipPath>
</defs>
</svg>
