<svg id="visual" viewBox="0 0 900 600" width="900" height="600" xmlns="http://www.w3.org/2000/svg" xmlns:xlink="http://www.w3.org/1999/xlink" version="1.1"><path d="M0 121L13.7 119C27.3 117 54.7 113 82 113C109.3 113 136.7 117 163.8 134C191 151 218 181 245.2 206C272.3 231 299.7 251 327 251C354.3 251 381.7 231 409 213C436.3 195 463.7 179 491 162C518.3 145 545.7 127 573 137C600.3 147 627.7 185 654.8 181C682 177 709 131 736.2 108C763.3 85 790.7 85 818 99C845.3 113 872.7 141 886.3 155L900 169L900 0L886.3 0C872.7 0 845.3 0 818 0C790.7 0 763.3 0 736.2 0C709 0 682 0 654.8 0C627.7 0 600.3 0 573 0C545.7 0 518.3 0 491 0C463.7 0 436.3 0 409 0C381.7 0 354.3 0 327 0C299.7 0 272.3 0 245.2 0C218 0 191 0 163.8 0C136.7 0 109.3 0 82 0C54.7 0 27.3 0 13.7 0L0 0Z" fill="#f2f2f2"></path><path d="M0 367L13.7 356C27.3 345 54.7 323 82 321C109.3 319 136.7 337 163.8 344C191 351 218 347 245.2 350C272.3 353 299.7 363 327 363C354.3 363 381.7 353 409 341C436.3 329 463.7 315 491 320C518.3 325 545.7 349 573 361C600.3 373 627.7 373 654.8 367C682 361 709 349 736.2 342C763.3 335 790.7 333 818 339C845.3 345 872.7 359 886.3 366L900 373L900 167L886.3 153C872.7 139 845.3 111 818 97C790.7 83 763.3 83 736.2 106C709 129 682 175 654.8 179C627.7 183 600.3 145 573 135C545.7 125 518.3 143 491 160C463.7 177 436.3 193 409 211C381.7 229 354.3 249 327 249C299.7 249 272.3 229 245.2 204C218 179 191 149 163.8 132C136.7 115 109.3 111 82 111C54.7 111 27.3 115 13.7 117L0 119Z" fill="#eeeeee"></path><path d="M0 433L13.7 432C27.3 431 54.7 429 82 434C109.3 439 136.7 451 163.8 450C191 449 218 435 245.2 433C272.3 431 299.7 441 327 449C354.3 457 381.7 463 409 445C436.3 427 463.7 385 491 381C518.3 377 545.7 411 573 435C600.3 459 627.7 473 654.8 465C682 457 709 427 736.2 410C763.3 393 790.7 389 818 394C845.3 399 872.7 413 886.3 420L900 427L900 371L886.3 364C872.7 357 845.3 343 818 337C790.7 331 763.3 333 736.2 340C709 347 682 359 654.8 365C627.7 371 600.3 371 573 359C545.7 347 518.3 323 491 318C463.7 313 436.3 327 409 339C381.7 351 354.3 361 327 361C299.7 361 272.3 351 245.2 348C218 345 191 349 163.8 342C136.7 335 109.3 317 82 319C54.7 321 27.3 343 13.7 354L0 365Z" fill="#ebebeb"></path><path d="M0 535L13.7 529C27.3 523 54.7 511 82 513C109.3 515 136.7 531 163.8 532C191 533 218 519 245.2 518C272.3 517 299.7 529 327 529C354.3 529 381.7 517 409 501C436.3 485 463.7 465 491 461C518.3 457 545.7 469 573 486C600.3 503 627.7 525 654.8 528C682 531 709 515 736.2 505C763.3 495 790.7 491 818 495C845.3 499 872.7 511 886.3 517L900 523L900 425L886.3 418C872.7 411 845.3 397 818 392C790.7 387 763.3 391 736.2 408C709 425 682 455 654.8 463C627.7 471 600.3 457 573 433C545.7 409 518.3 375 491 379C463.7 383 436.3 425 409 443C381.7 461 354.3 455 327 447C299.7 439 272.3 429 245.2 431C218 433 191 447 163.8 448C136.7 449 109.3 437 82 432C54.7 427 27.3 429 13.7 430L0 431Z" fill="#e3e3e3"></path><path d="M0 601L13.7 601C27.3 601 54.7 601 82 601C109.3 601 136.7 601 163.8 601C191 601 218 601 245.2 601C272.3 601 299.7 601 327 601C354.3 601 381.7 601 409 601C436.3 601 463.7 601 491 601C518.3 601 545.7 601 573 601C600.3 601 627.7 601 654.8 601C682 601 709 601 736.2 601C763.3 601 790.7 601 818 601C845.3 601 872.7 601 886.3 601L900 601L900 521L886.3 515C872.7 509 845.3 497 818 493C790.7 489 763.3 493 736.2 503C709 513 682 529 654.8 526C627.7 523 600.3 501 573 484C545.7 467 518.3 455 491 459C463.7 463 436.3 483 409 499C381.7 515 354.3 527 327 527C299.7 527 272.3 515 245.2 516C218 517 191 531 163.8 530C136.7 529 109.3 513 82 511C54.7 509 27.3 521 13.7 527L0 533Z" fill="#dbdbdb"></path></svg>